<mxfile host="drawio.corp.amazon.com" modified="2025-01-06T13:39:27.810Z" agent="Mozilla/5.0 (Macintosh; Intel Mac OS X 10.15; rv:132.0) Gecko/20100101 Firefox/132.0" etag="Qx0YxtgxCOC4_OveJMvB" version="21.7.4" type="device">
  <diagram name="Page-1" id="TT_tIUdXtbXGJQ603LId">
    <mxGraphModel dx="866" dy="599" grid="1" gridSize="10" guides="1" tooltips="1" connect="1" arrows="1" fold="1" page="1" pageScale="1" pageWidth="850" pageHeight="1100" math="0" shadow="0">
      <root>
        <mxCell id="0" />
        <mxCell id="1" parent="0" />
        <mxCell id="wox9m5H8_VQ_Gffi9_Kt-1" value="&lt;font color=&quot;#000000&quot;&gt;AWS Cloud&lt;/font&gt;" style="sketch=0;outlineConnect=0;gradientColor=none;html=1;whiteSpace=wrap;fontSize=12;fontStyle=0;shape=mxgraph.aws4.group;grIcon=mxgraph.aws4.group_aws_cloud;strokeColor=#000000;fillColor=none;verticalAlign=top;align=left;spacingLeft=30;fontColor=#AAB7B8;dashed=0;" vertex="1" parent="1">
          <mxGeometry x="40" y="40" width="590" height="520" as="geometry" />
        </mxCell>
        <mxCell id="wox9m5H8_VQ_Gffi9_Kt-7" value="" style="rounded=0;whiteSpace=wrap;html=1;fillColor=none;dashed=1;strokeColor=#666666;" vertex="1" parent="1">
          <mxGeometry x="200" y="261" width="400" height="149" as="geometry" />
        </mxCell>
        <mxCell id="wox9m5H8_VQ_Gffi9_Kt-2" value="&lt;font color=&quot;#000000&quot;&gt;AWS Organizations management account&lt;/font&gt;" style="points=[[0,0],[0.25,0],[0.5,0],[0.75,0],[1,0],[1,0.25],[1,0.5],[1,0.75],[1,1],[0.75,1],[0.5,1],[0.25,1],[0,1],[0,0.75],[0,0.5],[0,0.25]];outlineConnect=0;gradientColor=none;html=1;whiteSpace=wrap;fontSize=12;fontStyle=0;container=1;pointerEvents=0;collapsible=0;recursiveResize=0;shape=mxgraph.aws4.group;grIcon=mxgraph.aws4.group_account;strokeColor=#CD2264;fillColor=none;verticalAlign=top;align=left;spacingLeft=30;fontColor=#CD2264;dashed=0;" vertex="1" parent="1">
          <mxGeometry x="50" y="80" width="570" height="130" as="geometry" />
        </mxCell>
        <mxCell id="wox9m5H8_VQ_Gffi9_Kt-8" value="MoveAccount&lt;br&gt;EventBridge rule" style="sketch=0;outlineConnect=0;fontColor=#232F3E;gradientColor=none;fillColor=#E7157B;strokeColor=none;dashed=0;verticalLabelPosition=bottom;verticalAlign=top;align=center;html=1;fontSize=12;fontStyle=0;aspect=fixed;pointerEvents=1;shape=mxgraph.aws4.event;" vertex="1" parent="wox9m5H8_VQ_Gffi9_Kt-2">
          <mxGeometry x="68" y="44.5" width="34" height="34" as="geometry" />
        </mxCell>
        <mxCell id="wox9m5H8_VQ_Gffi9_Kt-43" value="&lt;font color=&quot;#ffffff&quot;&gt;&lt;b&gt;3&lt;/b&gt;&lt;/font&gt;" style="ellipse;whiteSpace=wrap;html=1;fillColor=#000000;" vertex="1" parent="wox9m5H8_VQ_Gffi9_Kt-2">
          <mxGeometry x="250" y="30" width="20" height="20" as="geometry" />
        </mxCell>
        <mxCell id="wox9m5H8_VQ_Gffi9_Kt-42" value="&lt;font color=&quot;#ffffff&quot;&gt;&lt;b&gt;2&lt;/b&gt;&lt;/font&gt;" style="ellipse;whiteSpace=wrap;html=1;fillColor=#000000;" vertex="1" parent="wox9m5H8_VQ_Gffi9_Kt-2">
          <mxGeometry x="102" y="30" width="20" height="20" as="geometry" />
        </mxCell>
        <mxCell id="wox9m5H8_VQ_Gffi9_Kt-3" value="&lt;font color=&quot;#000000&quot;&gt;IAM Identity Center &lt;br&gt;delegated administrator account&lt;/font&gt;" style="points=[[0,0],[0.25,0],[0.5,0],[0.75,0],[1,0],[1,0.25],[1,0.5],[1,0.75],[1,1],[0.75,1],[0.5,1],[0.25,1],[0,1],[0,0.75],[0,0.5],[0,0.25]];outlineConnect=0;gradientColor=none;html=1;whiteSpace=wrap;fontSize=12;fontStyle=0;container=1;pointerEvents=0;collapsible=0;recursiveResize=0;shape=mxgraph.aws4.group;grIcon=mxgraph.aws4.group_account;strokeColor=#CD2264;fillColor=none;verticalAlign=top;align=left;spacingLeft=30;fontColor=#CD2264;dashed=0;" vertex="1" parent="1">
          <mxGeometry x="50" y="220" width="570" height="330" as="geometry" />
        </mxCell>
        <mxCell id="wox9m5H8_VQ_Gffi9_Kt-29" style="edgeStyle=orthogonalEdgeStyle;rounded=0;orthogonalLoop=1;jettySize=auto;html=1;" edge="1" parent="wox9m5H8_VQ_Gffi9_Kt-3" source="wox9m5H8_VQ_Gffi9_Kt-6" target="wox9m5H8_VQ_Gffi9_Kt-12">
          <mxGeometry relative="1" as="geometry" />
        </mxCell>
        <mxCell id="wox9m5H8_VQ_Gffi9_Kt-6" value="&lt;b&gt;CodeBuild&lt;/b&gt;&lt;br&gt;ValidateTemplate" style="sketch=0;points=[[0,0,0],[0.25,0,0],[0.5,0,0],[0.75,0,0],[1,0,0],[0,1,0],[0.25,1,0],[0.5,1,0],[0.75,1,0],[1,1,0],[0,0.25,0],[0,0.5,0],[0,0.75,0],[1,0.25,0],[1,0.5,0],[1,0.75,0]];outlineConnect=0;fontColor=#232F3E;fillColor=#C925D1;strokeColor=#ffffff;dashed=0;verticalLabelPosition=bottom;verticalAlign=top;align=center;html=1;fontSize=12;fontStyle=0;aspect=fixed;shape=mxgraph.aws4.resourceIcon;resIcon=mxgraph.aws4.codebuild;" vertex="1" parent="wox9m5H8_VQ_Gffi9_Kt-3">
          <mxGeometry x="328" y="69" width="78" height="78" as="geometry" />
        </mxCell>
        <mxCell id="wox9m5H8_VQ_Gffi9_Kt-28" style="edgeStyle=orthogonalEdgeStyle;rounded=0;orthogonalLoop=1;jettySize=auto;html=1;" edge="1" parent="wox9m5H8_VQ_Gffi9_Kt-3" source="wox9m5H8_VQ_Gffi9_Kt-5" target="wox9m5H8_VQ_Gffi9_Kt-6">
          <mxGeometry relative="1" as="geometry" />
        </mxCell>
        <mxCell id="wox9m5H8_VQ_Gffi9_Kt-5" value="CodePipeline" style="sketch=0;points=[[0,0,0],[0.25,0,0],[0.5,0,0],[0.75,0,0],[1,0,0],[0,1,0],[0.25,1,0],[0.5,1,0],[0.75,1,0],[1,1,0],[0,0.25,0],[0,0.5,0],[0,0.75,0],[1,0.25,0],[1,0.5,0],[1,0.75,0]];outlineConnect=0;fontColor=#232F3E;fillColor=#C925D1;strokeColor=#ffffff;dashed=0;verticalLabelPosition=bottom;verticalAlign=top;align=center;html=1;fontSize=12;fontStyle=0;aspect=fixed;shape=mxgraph.aws4.resourceIcon;resIcon=mxgraph.aws4.codepipeline;" vertex="1" parent="wox9m5H8_VQ_Gffi9_Kt-3">
          <mxGeometry x="194" y="69" width="78" height="78" as="geometry" />
        </mxCell>
        <mxCell id="wox9m5H8_VQ_Gffi9_Kt-12" value="" style="sketch=0;points=[[0,0,0],[0.25,0,0],[0.5,0,0],[0.75,0,0],[1,0,0],[0,1,0],[0.25,1,0],[0.5,1,0],[0.75,1,0],[1,1,0],[0,0.25,0],[0,0.5,0],[0,0.75,0],[1,0.25,0],[1,0.5,0],[1,0.75,0]];outlineConnect=0;fontColor=#232F3E;fillColor=#C925D1;strokeColor=#ffffff;dashed=0;verticalLabelPosition=bottom;verticalAlign=top;align=center;html=1;fontSize=12;fontStyle=0;aspect=fixed;shape=mxgraph.aws4.resourceIcon;resIcon=mxgraph.aws4.codebuild;" vertex="1" parent="wox9m5H8_VQ_Gffi9_Kt-3">
          <mxGeometry x="450" y="69" width="78" height="78" as="geometry" />
        </mxCell>
        <mxCell id="wox9m5H8_VQ_Gffi9_Kt-16" value="AWS SDK&lt;br&gt;for Python" style="outlineConnect=0;dashed=0;verticalLabelPosition=bottom;verticalAlign=top;align=center;html=1;shape=mxgraph.aws3.android;fillColor=#FFD44F;gradientColor=none;" vertex="1" parent="wox9m5H8_VQ_Gffi9_Kt-3">
          <mxGeometry x="349.75" y="222" width="52.5" height="60" as="geometry" />
        </mxCell>
        <mxCell id="wox9m5H8_VQ_Gffi9_Kt-19" value="Amazon S3&lt;br&gt;bucket" style="sketch=0;outlineConnect=0;fontColor=#232F3E;gradientColor=none;fillColor=#7AA116;strokeColor=none;dashed=0;verticalLabelPosition=bottom;verticalAlign=top;align=center;html=1;fontSize=12;fontStyle=0;aspect=fixed;pointerEvents=1;shape=mxgraph.aws4.bucket;" vertex="1" parent="wox9m5H8_VQ_Gffi9_Kt-3">
          <mxGeometry x="80" y="231" width="40.38" height="42" as="geometry" />
        </mxCell>
        <mxCell id="wox9m5H8_VQ_Gffi9_Kt-15" value="&lt;font color=&quot;#ffffff&quot;&gt;Terraform&lt;/font&gt;" style="whiteSpace=wrap;html=1;aspect=fixed;fillColor=#000000;" vertex="1" parent="wox9m5H8_VQ_Gffi9_Kt-3">
          <mxGeometry x="230" y="222" width="60" height="60" as="geometry" />
        </mxCell>
        <mxCell id="wox9m5H8_VQ_Gffi9_Kt-22" style="edgeStyle=orthogonalEdgeStyle;rounded=0;orthogonalLoop=1;jettySize=auto;html=1;" edge="1" parent="wox9m5H8_VQ_Gffi9_Kt-3" source="wox9m5H8_VQ_Gffi9_Kt-15" target="wox9m5H8_VQ_Gffi9_Kt-19">
          <mxGeometry relative="1" as="geometry" />
        </mxCell>
        <mxCell id="wox9m5H8_VQ_Gffi9_Kt-49" value="&lt;font color=&quot;#ffffff&quot;&gt;&lt;b&gt;3&lt;/b&gt;&lt;/font&gt;" style="ellipse;whiteSpace=wrap;html=1;fillColor=#000000;" vertex="1" parent="wox9m5H8_VQ_Gffi9_Kt-3">
          <mxGeometry x="110" y="98" width="20" height="20" as="geometry" />
        </mxCell>
        <mxCell id="wox9m5H8_VQ_Gffi9_Kt-21" style="edgeStyle=orthogonalEdgeStyle;rounded=0;orthogonalLoop=1;jettySize=auto;html=1;" edge="1" parent="1" source="wox9m5H8_VQ_Gffi9_Kt-4" target="wox9m5H8_VQ_Gffi9_Kt-5">
          <mxGeometry relative="1" as="geometry" />
        </mxCell>
        <mxCell id="wox9m5H8_VQ_Gffi9_Kt-4" value="Lambda function" style="sketch=0;outlineConnect=0;fontColor=#232F3E;gradientColor=none;fillColor=#ED7100;strokeColor=none;dashed=0;verticalLabelPosition=bottom;verticalAlign=top;align=center;html=1;fontSize=12;fontStyle=0;aspect=fixed;pointerEvents=1;shape=mxgraph.aws4.lambda_function;" vertex="1" parent="1">
          <mxGeometry x="264.5" y="123" width="37" height="37" as="geometry" />
        </mxCell>
        <mxCell id="wox9m5H8_VQ_Gffi9_Kt-20" style="edgeStyle=orthogonalEdgeStyle;rounded=0;orthogonalLoop=1;jettySize=auto;html=1;" edge="1" parent="1" source="wox9m5H8_VQ_Gffi9_Kt-8" target="wox9m5H8_VQ_Gffi9_Kt-4">
          <mxGeometry relative="1" as="geometry" />
        </mxCell>
        <mxCell id="wox9m5H8_VQ_Gffi9_Kt-9" value="AWS Organizations" style="sketch=0;points=[[0,0,0],[0.25,0,0],[0.5,0,0],[0.75,0,0],[1,0,0],[0,1,0],[0.25,1,0],[0.5,1,0],[0.75,1,0],[1,1,0],[0,0.25,0],[0,0.5,0],[0,0.75,0],[1,0.25,0],[1,0.5,0],[1,0.75,0]];points=[[0,0,0],[0.25,0,0],[0.5,0,0],[0.75,0,0],[1,0,0],[0,1,0],[0.25,1,0],[0.5,1,0],[0.75,1,0],[1,1,0],[0,0.25,0],[0,0.5,0],[0,0.75,0],[1,0.25,0],[1,0.5,0],[1,0.75,0]];outlineConnect=0;fontColor=#232F3E;fillColor=#E7157B;strokeColor=#ffffff;dashed=0;verticalLabelPosition=bottom;verticalAlign=top;align=center;html=1;fontSize=12;fontStyle=0;aspect=fixed;shape=mxgraph.aws4.resourceIcon;resIcon=mxgraph.aws4.organizations;" vertex="1" parent="1">
          <mxGeometry x="500" y="100" width="78" height="78" as="geometry" />
        </mxCell>
        <mxCell id="wox9m5H8_VQ_Gffi9_Kt-23" style="edgeStyle=orthogonalEdgeStyle;rounded=0;orthogonalLoop=1;jettySize=auto;html=1;entryX=0.997;entryY=0.468;entryDx=0;entryDy=0;entryPerimeter=0;" edge="1" parent="1" source="wox9m5H8_VQ_Gffi9_Kt-11" target="wox9m5H8_VQ_Gffi9_Kt-7">
          <mxGeometry relative="1" as="geometry" />
        </mxCell>
        <mxCell id="wox9m5H8_VQ_Gffi9_Kt-11" value="Git Remote Repository" style="sketch=0;outlineConnect=0;fontColor=#232F3E;gradientColor=none;fillColor=#232F3D;strokeColor=none;dashed=0;verticalLabelPosition=bottom;verticalAlign=top;align=center;html=1;fontSize=12;fontStyle=0;aspect=fixed;pointerEvents=1;shape=mxgraph.aws4.git_repository;" vertex="1" parent="1">
          <mxGeometry x="707.7" y="300" width="46.15" height="60" as="geometry" />
        </mxCell>
        <mxCell id="wox9m5H8_VQ_Gffi9_Kt-13" value="&lt;font color=&quot;#666666&quot;&gt;CI/CD pipeline&lt;/font&gt;" style="text;html=1;align=center;verticalAlign=middle;resizable=0;points=[];autosize=1;strokeColor=none;fillColor=none;" vertex="1" parent="1">
          <mxGeometry x="373.5" y="259" width="100" height="30" as="geometry" />
        </mxCell>
        <mxCell id="wox9m5H8_VQ_Gffi9_Kt-18" value="IAM Identity Center" style="sketch=0;points=[[0,0,0],[0.25,0,0],[0.5,0,0],[0.75,0,0],[1,0,0],[0,1,0],[0.25,1,0],[0.5,1,0],[0.75,1,0],[1,1,0],[0,0.25,0],[0,0.5,0],[0,0.75,0],[1,0.25,0],[1,0.5,0],[1,0.75,0]];outlineConnect=0;fontColor=#232F3E;fillColor=#DD344C;strokeColor=#ffffff;dashed=0;verticalLabelPosition=bottom;verticalAlign=top;align=center;html=1;fontSize=12;fontStyle=0;aspect=fixed;shape=mxgraph.aws4.resourceIcon;resIcon=mxgraph.aws4.single_sign_on;" vertex="1" parent="1">
          <mxGeometry x="509.5" y="442" width="61" height="61" as="geometry" />
        </mxCell>
        <mxCell id="wox9m5H8_VQ_Gffi9_Kt-26" style="edgeStyle=orthogonalEdgeStyle;rounded=0;orthogonalLoop=1;jettySize=auto;html=1;" edge="1" parent="1" target="wox9m5H8_VQ_Gffi9_Kt-11">
          <mxGeometry relative="1" as="geometry">
            <mxPoint x="730" y="280" as="sourcePoint" />
          </mxGeometry>
        </mxCell>
        <mxCell id="wox9m5H8_VQ_Gffi9_Kt-27" style="edgeStyle=orthogonalEdgeStyle;rounded=0;orthogonalLoop=1;jettySize=auto;html=1;" edge="1" parent="1" source="wox9m5H8_VQ_Gffi9_Kt-25" target="wox9m5H8_VQ_Gffi9_Kt-9">
          <mxGeometry relative="1" as="geometry">
            <Array as="points">
              <mxPoint x="731" y="139" />
            </Array>
          </mxGeometry>
        </mxCell>
        <mxCell id="wox9m5H8_VQ_Gffi9_Kt-25" value="User" style="sketch=0;outlineConnect=0;fontColor=#232F3E;gradientColor=none;fillColor=#232F3D;strokeColor=none;dashed=0;verticalLabelPosition=bottom;verticalAlign=top;align=center;html=1;fontSize=12;fontStyle=0;aspect=fixed;pointerEvents=1;shape=mxgraph.aws4.user;" vertex="1" parent="1">
          <mxGeometry x="705.78" y="198" width="50" height="50" as="geometry" />
        </mxCell>
        <mxCell id="wox9m5H8_VQ_Gffi9_Kt-37" style="edgeStyle=orthogonalEdgeStyle;rounded=0;orthogonalLoop=1;jettySize=auto;html=1;" edge="1" parent="1" source="wox9m5H8_VQ_Gffi9_Kt-36" target="wox9m5H8_VQ_Gffi9_Kt-18">
          <mxGeometry relative="1" as="geometry" />
        </mxCell>
        <mxCell id="wox9m5H8_VQ_Gffi9_Kt-38" style="edgeStyle=orthogonalEdgeStyle;rounded=0;orthogonalLoop=1;jettySize=auto;html=1;" edge="1" parent="1" source="wox9m5H8_VQ_Gffi9_Kt-36" target="wox9m5H8_VQ_Gffi9_Kt-16">
          <mxGeometry relative="1" as="geometry">
            <Array as="points">
              <mxPoint x="540" y="420" />
              <mxPoint x="426" y="420" />
            </Array>
          </mxGeometry>
        </mxCell>
        <mxCell id="wox9m5H8_VQ_Gffi9_Kt-39" style="edgeStyle=orthogonalEdgeStyle;rounded=0;orthogonalLoop=1;jettySize=auto;html=1;" edge="1" parent="1" source="wox9m5H8_VQ_Gffi9_Kt-36" target="wox9m5H8_VQ_Gffi9_Kt-15">
          <mxGeometry relative="1" as="geometry">
            <Array as="points">
              <mxPoint x="540" y="420" />
              <mxPoint x="310" y="420" />
            </Array>
          </mxGeometry>
        </mxCell>
        <mxCell id="wox9m5H8_VQ_Gffi9_Kt-36" value="&lt;div align=&quot;center&quot;&gt;&lt;b&gt;CodeBuild&lt;/b&gt;&lt;br&gt;Deploy&lt;/div&gt;" style="text;whiteSpace=wrap;html=1;align=center;" vertex="1" parent="1">
          <mxGeometry x="505" y="366" width="70" height="35" as="geometry" />
        </mxCell>
        <mxCell id="wox9m5H8_VQ_Gffi9_Kt-40" value="&lt;font color=&quot;#ffffff&quot;&gt;&lt;b&gt;1&lt;/b&gt;&lt;/font&gt;" style="ellipse;whiteSpace=wrap;html=1;fillColor=#000000;" vertex="1" parent="1">
          <mxGeometry x="670" y="220" width="20" height="20" as="geometry" />
        </mxCell>
        <mxCell id="wox9m5H8_VQ_Gffi9_Kt-41" value="&lt;font color=&quot;#ffffff&quot;&gt;&lt;b&gt;6&lt;/b&gt;&lt;/font&gt;" style="ellipse;whiteSpace=wrap;html=1;fillColor=#000000;" vertex="1" parent="1">
          <mxGeometry x="580" y="462.5" width="20" height="20" as="geometry" />
        </mxCell>
        <mxCell id="wox9m5H8_VQ_Gffi9_Kt-50" value="&lt;font color=&quot;#ffffff&quot;&gt;&lt;b&gt;4&lt;/b&gt;&lt;/font&gt;" style="ellipse;whiteSpace=wrap;html=1;fillColor=#000000;" vertex="1" parent="1">
          <mxGeometry x="352" y="290" width="20" height="20" as="geometry" />
        </mxCell>
        <mxCell id="wox9m5H8_VQ_Gffi9_Kt-52" value="&lt;font color=&quot;#ffffff&quot;&gt;&lt;b&gt;5&lt;/b&gt;&lt;/font&gt;" style="ellipse;whiteSpace=wrap;html=1;fillColor=#000000;" vertex="1" parent="1">
          <mxGeometry x="476" y="289" width="20" height="20" as="geometry" />
        </mxCell>
      </root>
    </mxGraphModel>
  </diagram>
</mxfile>
